<svg xmlns="http://www.w3.org/2000/svg" version="1.1" xmlns:xlink="http://www.w3.org/1999/xlink" viewBox="0 0 10.476317998977398 2.1354646456750617"><g transform="matrix(0.6701711840260738,0,0,0.6701711840260738,2.0798646685031166,0.8505044218083897)"><rect width="11.52729988603177" height="11.52729988603177" x="-1.0509818870543715" y="-5.439512011981402" fill="#ffffff"></rect><g transform="matrix(1,0,0,1,0,0)" clip-path="url(#SvgjsClipPath148471)"><g clip-path="url(#aed64f824-75cb-4d18-8be8-345e27b3fdf9047bb893-2038-4714-be24-27ffdcef46f7)"><path d=" M 3.0899343050490433 0.3156700927298287 L 3.105562865469175 0.3156700927298287 L 3.105562865469175 0.2965047445823519 L 3.1349480797309988 0.2965047445823519 L 3.1349480797309988 0.3156700927298287 L 3.150251845764673 0.3156700927298287 L 3.150251845764673 0.21546482614141688 L 3.2344330961723418 0.21546482614141688 L 3.2344330961723418 0.3156700927298287 L 3.252237283112449 0.3156700927298287 L 3.252237283112449 0.14936792882400618 L 3.376779814567049 0.14936792882400618 L 3.376779814567049 0.3156700927298287 L 3.376743864043357 0.3156700927298287 L 3.376743864043357 0.34503671189319085 L 3.376779814567049 0.34503671189319085 L 3.376779814567049 0.5081417585368955 L 3.252237283112449 0.5081417585368955 L 3.252237283112449 0.34503671189319085 L 3.2344330961723418 0.34503671189319085 L 3.2344330961723418 0.4467766939412777 L 3.150251845764673 0.4467766939412777 L 3.150251845764673 0.34503671189319085 L 3.1349480797309988 0.34503671189319085 L 3.1349480797309988 0.3625904848406858 L 3.105562865469175 0.3625904848406858 L 3.105562865469175 0.34503671189319085 L 3.0899343050490433 0.34503671189319085 C 3.076739223180884 0.3291874896379844 3.0899343050490433 0.3156700927298287 3.0899343050490433 0.3156700927298287" fill="url(#gradient-08c6a1ff-46e9-4458-b0fe-ab543a0f772f_0)" transform="matrix(1,0,0,1,0,0)" fill-rule="nonzero"></path></g><g clip-path="url(#aed64f824-75cb-4d18-8be8-345e27b3fdf9047bb893-2038-4714-be24-27ffdcef46f7)"><path d=" M 4.278768536611062 0.3156700927298287 L 4.26313997619093 0.3156700927298287 L 4.26313997619093 0.2965047445823519 L 4.233752282582644 0.2965047445823519 L 4.233752282582644 0.3156700927298287 L 4.218450995895433 0.3156700927298287 L 4.218450995895433 0.21546482614141688 L 4.13426478679484 0.21546482614141688 L 4.13426478679484 0.3156700927298287 L 4.116468037894117 0.3156700927298287 L 4.116468037894117 0.14936792882400618 L 3.9919180684001327 0.14936792882400618 L 3.9919180684001327 0.3156700927298287 L 3.991954018923825 0.3156700927298287 L 3.991954018923825 0.34503671189319085 L 3.9919180684001327 0.34503671189319085 L 3.9919180684001327 0.5081417585368955 L 4.116468037894117 0.5081417585368955 L 4.116468037894117 0.34503671189319085 L 4.13426478679484 0.34503671189319085 L 4.13426478679484 0.4467766939412777 L 4.218450995895433 0.4467766939412777 L 4.218450995895433 0.34503671189319085 L 4.233752282582644 0.34503671189319085 L 4.233752282582644 0.3625904848406858 L 4.26313997619093 0.3625904848406858 L 4.26313997619093 0.34503671189319085 L 4.278768536611062 0.34503671189319085 C 4.292859902225057 0.33211311846256686 4.27886523112306 0.31644860751874304 4.278768536611062 0.3156700927298287" fill="url(#gradient-08c6a1ff-46e9-4458-b0fe-ab543a0f772f_1)" transform="matrix(1,0,0,1,0,0)" fill-rule="nonzero"></path></g><g clip-path="url(#aed64f824-75cb-4d18-8be8-345e27b3fdf9047bb893-2038-4714-be24-27ffdcef46f7)"><path d=" M 3.7462879747850484 -0.10330474841499904 C 3.7405024198171133 -0.09106297526129054 3.7281193239150987 -0.06992778635014354 3.7060085121713473 -0.05416038252816696 C 3.707727938942405 -0.051004174482664005 3.708796537267316 -0.047437634597781 3.708796537267316 -0.04358720954305509 C 3.708796537267316 -0.03129956847980861 3.698834523184966 -0.021340033743920572 3.68654688212172 -0.021340033743920572 C 3.674271637790781 -0.021340033743920572 3.66430714436197 -0.03129956847980861 3.66430714436197 -0.04358720954305509 C 3.66430714436197 -0.05587485060630154 3.674271637790781 -0.06582074893665127 3.68654688212172 -0.06582074893665127 C 3.691324582753051 -0.06582074893665127 3.695726662395463 -0.0642860334769762 3.699355185941884 -0.061723628909004985 C 3.7050812365947423 -0.075660035369156 3.717200282098606 -0.09631299139353919 3.7402284520331164 -0.10862666559463151 C 3.7255730350991274 -0.12031802383388467 3.7070411599725666 -0.127358128111344 3.6868282879451013 -0.12738911994211288 C 3.6394318613136343 -0.12731473954826755 3.6011123220777574 -0.08896420848162181 3.601006949853143 -0.041567781850154695 C 3.6011123220777574 0.0058212067419279034 3.6394318613136343 0.044148184017189285 3.6868282879451013 0.04425107689534202 C 3.734212317844261 0.044148184017189285 3.7725628489109067 0.0058212067419279034 3.7726471466905984 -0.041567781850154695 C 3.772603758127522 -0.0658443027280356 3.762480586525174 -0.08770098145948216 3.7462879747850484 -0.10330474841499904 M 3.7014936222649366 -0.16440452293923516 L 3.7014936222649366 -0.18827319132419756 L 3.7211920299016383 -0.18827319132419756 L 3.7211920299016383 -0.21810344827586217 L 3.6509459462808893 -0.21810344827586217 L 3.6509459462808893 -0.18827319132419756 L 3.6722782432357266 -0.18827319132419756 L 3.6722782432357266 -0.1642867539823134 C 3.6583158252754067 -0.16256744001132561 3.644759988132698 -0.15842735965106713 3.6322194424571 -0.15205241886798943 L 3.615666085806825 -0.1748264557901949 L 3.599601160409467 -0.16316113068878763 L 3.6152557539674444 -0.14161437026502988 C 3.5850783885111683 -0.11942793845420238 3.5654841134258506 -0.08368939888475804 3.5654841134258506 -0.04335415097567308 C 3.5654841134258506 0.023947708722031807 3.6200495703507753 0.07851440532018755 3.68735143004848 0.07851440532018755 C 3.7546681658249543 0.07851440532018755 3.8092323830766484 0.023947708722031807 3.8092323830766484 -0.04335415097567308 C 3.8092323830766484 -0.10589318612081608 3.762142155733178 -0.15739169147285245 3.7014936222649366 -0.16440452293923516 M 3.6868282879451013 0.04846224686021766 C 3.6370975566201222 0.048438693068833305 3.5968205733528826 0.00813195764405572 3.5967957798882675 -0.041567781850154695 C 3.5968205733528826 -0.09129851317513404 3.6370975566201222 -0.1316064882731424 3.6868282879451013 -0.1316064882731424 C 3.7087581073971627 -0.1316064882731424 3.728837094715706 -0.1237506790098461 3.7444532584035306 -0.11072295302783873 C 3.746403053684291 -0.11163006408133903 3.7483867325470435 -0.1124624896703991 3.750399970891464 -0.11321841524134915 C 3.7524132092358835 -0.1139743408122992 3.7496933571499333 -0.11102171427645074 3.748132608552412 -0.10737583530479944 C 3.7657657205866757 -0.09094024761144576 3.7768545976357815 -0.06757860557786224 3.7768545976357815 -0.041567781850154695 C 3.7768545976357815 0.008131957644055748 3.736551581230696 0.04843869306883336 3.6868282879451013 0.04846224686021772" fill="url(#gradient-08c6a1ff-46e9-4458-b0fe-ab543a0f772f_2)" transform="matrix(1,0,0,1,0,0)" fill-rule="nonzero"></path></g><g clip-path="url(#aed64f824-75cb-4d18-8be8-345e27b3fdf9047bb893-2038-4714-be24-27ffdcef46f7)"><path d=" M 3.3338772033970696 -0.1544908561128852 C 3.3338772033970696 -0.15480077442057405 3.333820178428455 -0.15480077442057405 3.333820178428455 -0.15480077442057405 C 3.3337978643103012 -0.15480077442057405 3.333692492085687 -0.15500036181072566 3.332750340430313 -0.15503135364149453 C 3.329452809636504 -0.1551292878267242 3.321088734348598 -0.15134456545322827 3.3131114371086876 -0.14498008308653063 C 3.3046531466552445 -0.1385895675819871 3.2989791622780773 -0.13091227126391955 3.298591144556851 -0.12811184943564335 L 3.2994291636608417 -0.12707548261473195 C 3.2995060234011486 -0.1270705239218089 3.2995159407869945 -0.12705564784303985 3.299608916279301 -0.12705564784303985 C 3.30290644707311 -0.12692796150027202 3.311245728896401 -0.13073747733838306 3.3192738527387724 -0.13707592656723488 C 3.328276359740517 -0.14387801358438917 3.3341821630118353 -0.15221605573444924 3.3338772033970696 -0.1544908561128852 M 3.5457881851356103 0.14214435290839506 C 3.5353774093437274 0.12756083702178972 3.475590448770861 0.049664729894050186 3.422655162144379 -0.019094985523022884 C 3.4300795651233726 -0.027325176102007298 3.430766344093211 -0.0374371906452782 3.430766344093211 -0.0374371906452782 L 3.337691677928104 -0.152384651293832 C 3.3361681195275055 -0.1469635602557391 3.3301135554684964 -0.14041188723119735 3.3218548524052047 -0.13375360230881067 C 3.3146635079935933 -0.12823457708548813 3.3077994373149013 -0.12443497863322314 3.302522148371576 -0.12325604939077486 L 3.3952732598234565 -0.008706523849293546 C 3.4020319582775342 -0.008627184762525192 3.4074592476817807 -0.009768923808050806 3.4118935588281927 -0.011596202150184115 L 3.537284026772629 0.15214107784120573 L 3.5529125871927607 0.15214107784120573 Z" fill="url(#gradient-08c6a1ff-46e9-4458-b0fe-ab543a0f772f_3)" transform="matrix(1,0,0,1,0,0)" fill-rule="nonzero"></path></g><g clip-path="url(#aed64f824-75cb-4d18-8be8-345e27b3fdf9047bb893-2038-4714-be24-27ffdcef46f7)"><path d=" M 4.036479362352862 -0.15063919138492854 L 3.9434480847508313 -0.03575371439791253 C 3.9434480847508313 -0.03575371439791253 3.9441323843742087 -0.02564913789402612 3.9515530683335096 -0.017416467968580235 C 3.9016475430829938 0.04740232624792179 3.845667619001777 0.12032610404710187 3.830709721799484 0.14066914176379625 L 3.8233237486906435 0.15074644545660598 L 3.8392572687255413 0.15074644545660598 L 3.962301035244158 -0.009915205249279968 C 3.966739065410262 -0.008082968214223635 3.972175032527124 -0.006935030802544234 3.978946127713509 -0.0070094111963895644 L 4.0716674870078515 -0.12154654000556335 C 4.066383999698372 -0.12271431218893483 4.059492656208604 -0.12653746443258415 4.0523434606868385 -0.13206392769529124 C 4.044093435336162 -0.13868998111367828 4.038021515851922 -0.1452304970791432 4.036479362352862 -0.15063919138492854 M 4.061085636310124 -0.1432730530477806 C 4.053061231487446 -0.14963753541447827 4.044724429010616 -0.1534222577879742 4.041419460177423 -0.1533193649098215 C 4.040497143293741 -0.1533193649098215 4.040384333029742 -0.1531420916378235 4.0402616053798965 -0.15298961183044057 L 4.040286398844512 -0.15278134672767368 C 4.039983918576207 -0.1505139843886223 4.045907077272757 -0.14219453733702347 4.054951733164347 -0.13539245031986918 L 4.053635200193285 -0.13371641211188806 L 4.054951733164347 -0.1353614584891003 C 4.062874484782104 -0.12905276141778665 4.071252196475548 -0.1252382868867526 4.074557165308742 -0.12534117976490528 C 4.074635264722279 -0.12534117976490528 4.074676173938895 -0.12534861780428982 4.074746835313047 -0.12535109715075132 L 4.0756084082084225 -0.12641721612920087 C 4.075207993754889 -0.12920276187870802 4.069556323495875 -0.13687509950385254 4.061085636310124 -0.1432730530477806" fill="url(#gradient-08c6a1ff-46e9-4458-b0fe-ab543a0f772f_4)" transform="matrix(1,0,0,1,0,0)" fill-rule="nonzero"></path></g><g clip-path="url(#aed64f824-75cb-4d18-8be8-345e27b3fdf9047bb893-2038-4714-be24-27ffdcef46f7)"><path d=" M 4.0665587936239085 0.8232443796767372 C 4.0665587936239085 0.8235567773308876 4.0666145789192925 0.8235567773308876 4.0666145789192925 0.8235567773308876 C 4.066635653364216 0.8235567773308876 4.066742265262061 0.8237563647210393 4.067685656590665 0.8237873565518081 C 4.070980708038013 0.823885290737038 4.079343543652688 0.8200980890170804 4.087322080565829 0.8137336066503829 C 4.095781610692503 0.8073492895119929 4.1014555950696705 0.7996670345010024 4.1018448524641276 0.7968641333262647 L 4.101004354013676 0.7958302458518149 C 4.1009274942733684 0.7958302458518149 4.100916337214292 0.795809171406892 4.100824601395216 0.795809171406892 C 4.097529549947868 0.7956864437570472 4.089187788778116 0.7994934802486966 4.081163383955436 0.8058319294775484 C 4.072159637280461 0.8126377355143952 4.066251354662682 0.8209695792983014 4.0665587936239085 0.8232443796767372 M 3.854647811885368 0.5266116500019186 C 3.8650573480040205 0.5411951658885239 3.9248455482501177 0.6190937523627249 3.977780834876599 0.6878522281065673 C 3.970356431897606 0.6960811790123209 3.9696696529277675 0.7061969125752842 3.9696696529277675 0.7061969125752842 L 4.062741839746414 0.8211431335506072 C 4.064267877493473 0.8157220425125142 4.07031996220602 0.8091678901415111 4.078579904942543 0.802512084565586 C 4.085768770007693 0.7969881006493402 4.092635320032846 0.7931909815435367 4.0979138486494024 0.7920120523010885 L 4.005162737197522 0.6774600474131457 C 3.9984027990702136 0.6773819479996082 3.9929767493391974 0.6785249267183644 3.988542438192786 0.6803497257140363 L 3.8631519702483494 0.5166149250691078 L 3.8475221701549867 0.5166149250691078 Z" fill="url(#gradient-08c6a1ff-46e9-4458-b0fe-ab543a0f772f_5)" transform="matrix(1,0,0,1,0,0)" fill-rule="nonzero"></path></g><g clip-path="url(#aed64f824-75cb-4d18-8be8-345e27b3fdf9047bb893-2038-4714-be24-27ffdcef46f7)"><path d=" M 3.3009899122583626 0.819396433968473 L 3.3940211898603936 0.7045109569814569 C 3.3940211898603936 0.7045109569814569 3.3933368902370167 0.6944063804775705 3.3859162062777153 0.686171231205663 C 3.435821731528231 0.6213549163356227 3.4918016556094478 0.5484311385364424 3.5067595528117415 0.5280881008197481 L 3.5141455259205814 0.5180132764733998 L 3.4982120058856836 0.5180132764733998 L 3.375168239367067 0.678668728813132 C 3.3707302092009632 0.6768402107977679 3.365294242084101 0.6756922733860886 3.358521907224485 0.6757691331263954 L 3.2658017876033734 0.7903062619355692 C 3.2710852749128527 0.7914740341189406 3.2779766184026213 0.79529718636259 3.285124574251156 0.8008211702788355 C 3.2933745996018327 0.8074459840239918 3.299446519086072 0.813990219009149 3.3009899122583626 0.819396433968473 M 3.2763823986278697 0.8120327749777865 C 3.2844080431237797 0.818397257344484 3.292744845600609 0.8221795003715184 3.2960498144338026 0.8220766074933659 C 3.2969721313174847 0.8220766074933659 3.2970849415814834 0.8219018135678293 3.297207669231328 0.8217480940872155 L 3.2971828757667128 0.8215385893112181 C 3.2974841163617867 0.819268747625705 3.291560957665238 0.8109517799205679 3.282517541446878 0.804152172249875 L 3.28383407441794 0.8024711753489708 L 3.282517541446878 0.804121180419106 C 3.2745947898291208 0.7978075246548695 3.2662158384624456 0.793995529470297 3.2629108696292524 0.7940984223484497 C 3.2628340098889455 0.7940984223484497 3.2627931006723303 0.7941083397342956 3.2627211996249468 0.7941083397342956 L 3.2618608664028024 0.7951744587127452 C 3.2622600411831058 0.7979612441354831 3.26791295111535 0.805632342087397 3.27638239862787 0.8120327749777865" fill="url(#gradient-08c6a1ff-46e9-4458-b0fe-ab543a0f772f_6)" transform="matrix(1,0,0,1,0,0)" fill-rule="nonzero"></path></g><g clip-path="url(#SvgjsClipPath148466047bb893-2038-4714-be24-27ffdcef46f7)"><path d=" M 3.8542139262546042 0.34503671189319096 L 4.008705723291021 0.34503671189319096 L 4.008705723291021 0.3137151280449275 L 3.8542139262546042 0.3137151280449275 Z M 3.358350832318641 0.34503671189319096 L 3.5128426293550574 0.34503671189319096 L 3.5128426293550574 0.3137151280449275 L 3.358350832318641 0.3137151280449275 Z" fill="url(#gradient-08c6a1ff-46e9-4458-b0fe-ab543a0f772f_7)" transform="matrix(1,0,0,1,0,0)" fill-rule="nonzero"></path></g><g clip-path="url(#bed64f824-75cb-4d18-8be8-345e27b3fdf9047bb893-2038-4714-be24-27ffdcef46f7)"><path d=" M 3.691367971316127 0.8342464795996904 C 3.6454752683135663 0.8342464795996904 3.6082912697570615 0.7970699190825701 3.6082912697570615 0.7511821747729321 C 3.6082912697570615 0.7052894717703712 3.6454752683135663 0.6681178699461737 3.691367971316127 0.6681178699461737 C 3.737233401507612 0.6681178699461737 3.774442193528732 0.7052894717703713 3.774442193528732 0.7511821747729321 C 3.774442193528732 0.7970699190825701 3.737233401507612 0.8342464795996904 3.691367971316127 0.8342464795996904 M 3.6416446780305325 0.6158123373209157 C 3.6416756698613013 0.5967089728349766 3.6472480010335464 0.5822072753816012 3.6557422420106818 0.5726816262764776 C 3.6642786318776626 0.563175811943046 3.675802634230764 0.5576617454126463 3.6918427661635063 0.5574547199831102 L 3.69227541212104 0.5574547199831102 C 3.708249841372553 0.5576158775031085 3.719749050261039 0.5630555636396627 3.728357341175404 0.5725403035281714 C 3.7368689375777695 0.582046117861603 3.742567715419552 0.596499468058979 3.742681765356781 0.615648700454456 L 3.742681765356781 0.6162301071996802 C 3.742681765356781 0.6218842568051551 3.742136309135249 0.627203694638326 3.741204074865721 0.6322280902425773 C 3.725108157637594 0.6253615402174237 3.7093667869534634 0.6216970661473111 3.6970307986342172 0.6212086348943935 C 3.678593138673194 0.6204524342236327 3.6600637428930947 0.6238875687460557 3.6429004670132876 0.6307367633459786 C 3.6420897379930124 0.6259665377918434 3.641669747066953 0.6211380932460518 3.6416446780305325 0.6162995289006025 Z M 3.821472916557126 0.7384842018703056 C 3.8209944026900544 0.6984080456664485 3.7988984670250723 0.6688715912704729 3.7718909460198375 0.649438473705153 C 3.7749702943250334 0.6390252185668085 3.776594266257323 0.6278619611238572 3.776594266257323 0.6162301071996802 L 3.776594266257323 0.6155532456156878 C 3.7765000510917854 0.5897705217624392 3.7686529195411045 0.5666989632648525 3.7536379973701965 0.5499100687007336 C 3.7386677034355955 0.533048033416 3.7166002802549203 0.5234070947004161 3.6921824366287335 0.5235422190825685 L 3.6913221034065895 0.5235422190825685 C 3.667020789064093 0.5236624673859517 3.6451393168680317 0.5333529930307658 3.630346296205429 0.5501654413862692 C 3.6154293082197504 0.567024997324541 3.6077197803976833 0.5900990351685893 3.6077197803976833 0.6158123373209156 C 3.6077396151693755 0.615881759021838 3.6077396151693755 0.6160912637978355 3.6077396151693755 0.6164631657670622 C 3.6077892020986053 0.6274441912450925 3.609316479518896 0.6379256284111285 3.612072273110865 0.6478058240602482 C 3.5824986285179667 0.6694963865787735 3.562055177269581 0.7027270672024 3.5624952612664993 0.741425946446888 C 3.5633109662523363 0.811244342803026 3.590768488640335 0.8675688960423926 3.69344070495795 0.8663602146424065 C 3.804380302051472 0.8650535990571904 3.822289861216194 0.8082765650885979 3.821472916557126 0.7384842018703056 M 3.6121677279496334 0.7511821747729321 C 3.6122371496505554 0.7949389207989017 3.6476075062704654 0.8302807649345043 3.691367971316127 0.8303985338914261 C 3.7351036428971742 0.8302807649345043 3.770473999517084 0.7949389207989017 3.7705434212180062 0.7511821747729321" fill="url(#gradient-08c6a1ff-46e9-4458-b0fe-ab543a0f772f_8)" transform="matrix(1,0,0,1,0,0)" fill-rule="nonzero"></path></g><g clip-path="url(#SvgjsClipPath148466047bb893-2038-4714-be24-27ffdcef46f7)"><path d=" M 3.557752216016312 0.31037742617807995 L 3.6807550733183136 0.3373254428682385 L 3.588502310505197 0.49490402624923613 L 3.803791401797546 0.2911823258730649 L 3.699998520879328 0.26044338844325676 L 3.7845467145633007 0.13739466323171717 Z" fill="url(#gradient-08c6a1ff-46e9-4458-b0fe-ab543a0f772f_9)" transform="matrix(1,0,0,1,0,0)" fill-rule="nonzero"></path></g></g><g><path d=" M 0.1632183908045977 0.36436781609195407 L 0.1632183908045977 0.6000000000000001 Q 0.1632183908045977 0.6275862068965518 0.13793103448275862 0.635632183908046 Q 0.13103448275862067 0.6379310344827587 0.12068965517241378 0.6379310344827587 Q 0.1103448275862069 0.6379310344827587 0.09827586206896552 0.6287356321839082 Q 0.08620689655172414 0.6195402298850575 0.08620689655172414 0.6000000000000001 L 0.08620689655172414 0.0494252873563219 Q 0.08620689655172414 0.026436781609195492 0.1103448275862069 0.01379310344827589 Q 0.11724137931034483 0.010344827586206917 0.12643678160919541 0.010344827586206917 L 0.2827586206896552 0.010344827586206917 Q 0.4781609195402299 0.010344827586206917 0.5206896551724138 0.12988505747126444 Q 0.5310344827586206 0.15747126436781617 0.5310344827586206 0.18850574712643686 Q 0.5310344827586206 0.2195402298850575 0.5218390804597701 0.24597701149425294 Q 0.5126436781609195 0.2724137931034483 0.4954022988505747 0.2931034482758621 Q 0.4781609195402299 0.31379310344827593 0.4540229885057471 0.3264367816091955 Q 0.4298850574712644 0.33908045977011503 0.40229885057471265 0.34827586206896555 Q 0.3482758620689655 0.36436781609195407 0.2793103448275862 0.36436781609195407 L 0.1632183908045977 0.36436781609195407 M 0.29310344827586204 0.30229885057471273 Q 0.367816091954023 0.30229885057471273 0.40344827586206894 0.27701149425287364 Q 0.45057471264367815 0.24712643678160928 0.45057471264367815 0.18620689655172418 Q 0.45057471264367815 0.12758620689655176 0.40344827586206894 0.0977011494252874 Q 0.367816091954023 0.074712643678161 0.2942528735632184 0.07241379310344831 L 0.1632183908045977 0.07241379310344831 L 0.1632183908045977 0.30229885057471273 L 0.29310344827586204 0.30229885057471273 M 0.7367649122216235 0.25402298850574717 L 0.7367649122216235 0.6034482758620691 Q 0.7367649122216235 0.6206896551724138 0.7258453719917385 0.6293103448275863 Q 0.7149258317618534 0.6379310344827587 0.7045810041756466 0.6379310344827587 Q 0.6942361765894396 0.6379310344827587 0.6879143375089799 0.6362068965517242 Q 0.6815924984285201 0.6344827586206897 0.6769947972790948 0.6287356321839082 Q 0.6655005444055316 0.6206896551724138 0.6666499696928879 0.6034482758620691 L 0.6666499696928879 0.25402298850574717 L 0.6057304294630028 0.25402298850574717 Q 0.591937326014727 0.25402298850574717 0.5850407742905891 0.24597701149425294 Q 0.5781442225664511 0.23793103448275865 0.5781442225664511 0.2275862068965518 Q 0.5781442225664511 0.2195402298850575 0.5850407742905891 0.21034482758620698 Q 0.591937326014727 0.20114942528735635 0.6057304294630028 0.20114942528735635 L 0.6666499696928879 0.20114942528735635 L 0.6666499696928879 0.15287356321839085 Q 0.6666499696928879 0.034482758620689724 0.7298683604974856 0.008045977011494343 Q 0.7505580156698994 1.1102230246251565e-16 0.7712476708423133 1.1102230246251565e-16 Q 0.8080292800377156 1.1102230246251565e-16 0.8459603145204742 0.012643678160919603 Q 0.8632016938308189 0.019540229885057547 0.8632016938308189 0.03563218390804601 Q 0.8632016938308189 0.04482758620689664 0.8574545673940374 0.05344827586206902 Q 0.8517074409572558 0.06206896551724139 0.8419373260147269 0.06206896551724139 Q 0.8321672110721983 0.06206896551724139 0.8269947972790948 0.06149425287356325 Q 0.8218223834859913 0.060919540229885105 0.8172246823365661 0.05862068965517242 Q 0.8045810041756465 0.056321839080459846 0.7890637627963362 0.056321839080459846 Q 0.7735465214170258 0.056321839080459846 0.7632016938308189 0.06264367816091965 Q 0.752856866244612 0.06896551724137934 0.7459603145204741 0.08275862068965523 Q 0.7367649122216235 0.10459770114942535 0.7367649122216235 0.18735632183908052 L 0.7367649122216235 0.20114942528735635 L 0.8114775558997844 0.20114942528735635 Q 0.8252706593480603 0.20114942528735635 0.8327419237158764 0.20919540229885064 Q 0.8402131880836925 0.21724137931034487 0.8402131880836925 0.2275862068965518 Q 0.8402131880836925 0.23793103448275865 0.8327419237158764 0.24597701149425294 Q 0.8252706593480603 0.25402298850574717 0.8114775558997844 0.25402298850574717 L 0.7367649122216235 0.25402298850574717 M 1.321851147180316 0.40689655172413797 Q 1.321851147180316 0.4310344827586208 1.2942649402837643 0.4333333333333334 L 0.9793224115481322 0.4333333333333334 Q 0.9839201126975574 0.5505747126436782 1.071276434536638 0.5850574712643679 Q 1.0954143655711206 0.5931034482758621 1.1264488483297415 0.5931034482758621 Q 1.1908166644216953 0.5931034482758621 1.2574833310883622 0.5459770114942529 Q 1.2781729862607758 0.5344827586206897 1.2919660897090517 0.5482758620689656 Q 1.2988626414331896 0.5551724137931036 1.296563790858477 0.5620689655172414 Q 1.296563790858477 0.57816091954023 1.2885178138469828 0.5850574712643679 Q 1.225299423042385 0.6482758620689656 1.121851147180316 0.6471264367816092 Q 1.0275982736170977 0.6471264367816092 0.9701270092492816 0.5862068965517242 Q 0.9057591931573276 0.5229885057471265 0.9057591931573276 0.4195402298850575 Q 0.9057591931573276 0.3241379310344828 0.9586327563757184 0.26206896551724146 Q 1.0138051701688218 0.19310344827586212 1.1149545954561781 0.19310344827586212 Q 1.2161040207435345 0.19310344827586212 1.2689775839619253 0.25402298850574717 Q 1.3195522966056035 0.3091954022988506 1.321851147180316 0.40689655172413797 M 1.254035055226293 0.3862068965517242 Q 1.250586779364224 0.3241379310344828 1.213805170168822 0.2839080459770116 Q 1.1793224115481322 0.24712643678160928 1.1149545954561781 0.24712643678160928 Q 1.0597821816630746 0.24712643678160928 1.0207017218929597 0.28850574712643684 Q 0.9850695379849138 0.3298850574712644 0.9816212621228448 0.3862068965517242 L 1.254035055226293 0.3862068965517242 M 1.5126860519935346 0.0494252873563219 Q 1.5126860519935346 0.06781609195402305 1.500042373832615 0.07931034482758625 Q 1.4873986956716954 0.09080459770114946 1.464410189924569 0.09080459770114946 Q 1.4414216841774425 0.09080459770114946 1.428778006016523 0.07931034482758625 Q 1.4161343278556036 0.06781609195402305 1.4161343278556036 0.0494252873563219 Q 1.4161343278556036 0.03333333333333344 1.428778006016523 0.02183908045977012 Q 1.4414216841774425 0.010344827586206917 1.464984902568247 0.010344827586206917 Q 1.4885481209590516 0.010344827586206917 1.500617086476293 0.02183908045977012 Q 1.5126860519935346 0.03333333333333344 1.5126860519935346 0.0494252873563219 M 1.4299274313038792 0.23793103448275865 Q 1.4299274313038792 0.22068965517241385 1.4414216841774425 0.21091954022988513 Q 1.4529159370510056 0.20114942528735635 1.4621113393498564 0.20114942528735635 Q 1.471306741648707 0.20114942528735635 1.4770538680854886 0.20402298850574718 Q 1.4828009945222702 0.206896551724138 1.4885481209590516 0.2126436781609196 Q 1.5011917991199712 0.22068965517241385 1.5011917991199712 0.23793103448275865 L 1.5011917991199712 0.6034482758620691 Q 1.5011917991199712 0.6206896551724138 1.4896975462464082 0.6293103448275863 Q 1.4782032933728448 0.6379310344827587 1.464410189924569 0.6379310344827587 Q 1.450617086476293 0.6379310344827587 1.4402722588900863 0.6293103448275863 Q 1.4299274313038792 0.6206896551724138 1.4299274313038792 0.6034482758620691 L 1.4299274313038792 0.23793103448275865 M 1.7448825880028735 0.25402298850574717 L 1.7448825880028735 0.6034482758620691 Q 1.7448825880028735 0.6206896551724138 1.7339630477729886 0.6293103448275863 Q 1.7230435075431034 0.6379310344827587 1.7126986799568966 0.6379310344827587 Q 1.7023538523706896 0.6379310344827587 1.6960320132902298 0.6362068965517242 Q 1.6897101742097702 0.6344827586206897 1.6851124730603448 0.6287356321839082 Q 1.6736182201867815 0.6206896551724138 1.6747676454741378 0.6034482758620691 L 1.6747676454741378 0.25402298850574717 L 1.6138481052442528 0.25402298850574717 Q 1.600055001795977 0.25402298850574717 1.593158450071839 0.24597701149425294 Q 1.586261898347701 0.23793103448275865 1.586261898347701 0.2275862068965518 Q 1.586261898347701 0.2195402298850575 1.593158450071839 0.21034482758620698 Q 1.600055001795977 0.20114942528735635 1.6138481052442528 0.20114942528735635 L 1.6747676454741378 0.20114942528735635 L 1.6747676454741378 0.15287356321839085 Q 1.6747676454741378 0.034482758620689724 1.7379860362787356 0.008045977011494343 Q 1.7586756914511494 1.1102230246251565e-16 1.7793653466235633 1.1102230246251565e-16 Q 1.8161469558189656 1.1102230246251565e-16 1.8540779903017242 0.012643678160919603 Q 1.871319369612069 0.019540229885057547 1.871319369612069 0.03563218390804601 Q 1.871319369612069 0.04482758620689664 1.8655722431752872 0.05344827586206902 Q 1.8598251167385058 0.06206896551724139 1.850055001795977 0.06206896551724139 Q 1.8402848868534483 0.06206896551724139 1.8351124730603448 0.06149425287356325 Q 1.8299400592672415 0.060919540229885105 1.825342358117816 0.05862068965517242 Q 1.8126986799568965 0.056321839080459846 1.7971814385775862 0.056321839080459846 Q 1.7816641971982758 0.056321839080459846 1.771319369612069 0.06264367816091965 Q 1.760974542025862 0.06896551724137934 1.754077990301724 0.08275862068965523 Q 1.7448825880028735 0.10459770114942535 1.7448825880028735 0.18735632183908052 L 1.7448825880028735 0.20114942528735635 L 1.8195952316810344 0.20114942528735635 Q 1.8333883351293103 0.20114942528735635 1.8408595994971264 0.20919540229885064 Q 1.8483308638649425 0.21724137931034487 1.8483308638649425 0.2275862068965518 Q 1.8483308638649425 0.23793103448275865 1.8408595994971264 0.24597701149425294 Q 1.8333883351293103 0.25402298850574717 1.8195952316810344 0.25402298850574717 L 1.7448825880028735 0.25402298850574717 M 2.0495090528466235 0.25402298850574717 L 2.0495090528466235 0.6034482758620691 Q 2.0495090528466235 0.6206896551724138 2.0385895126167384 0.6293103448275863 Q 2.0276699723868536 0.6379310344827587 2.0173251448006466 0.6379310344827587 Q 2.0069803172144396 0.6379310344827587 2.00065847813398 0.6362068965517242 Q 1.9943366390535202 0.6344827586206897 1.9897389379040948 0.6287356321839082 Q 1.9782446850305315 0.6206896551724138 1.9793941103178878 0.6034482758620691 L 1.9793941103178878 0.25402298850574717 L 1.9184745700880028 0.25402298850574717 Q 1.904681466639727 0.25402298850574717 1.897784914915589 0.24597701149425294 Q 1.890888363191451 0.23793103448275865 1.890888363191451 0.2275862068965518 Q 1.890888363191451 0.2195402298850575 1.897784914915589 0.21034482758620698 Q 1.904681466639727 0.20114942528735635 1.9184745700880028 0.20114942528735635 L 1.9793941103178878 0.20114942528735635 L 1.9793941103178878 0.15287356321839085 Q 1.9793941103178878 0.034482758620689724 2.042612501122486 0.008045977011494343 Q 2.0633021562948994 1.1102230246251565e-16 2.083991811467313 1.1102230246251565e-16 Q 2.1207734206627156 1.1102230246251565e-16 2.1587044551454744 0.012643678160919603 Q 2.175945834455819 0.019540229885057547 2.175945834455819 0.03563218390804601 Q 2.175945834455819 0.04482758620689664 2.1701987080190372 0.05344827586206902 Q 2.164451581582256 0.06206896551724139 2.154681466639727 0.06206896551724139 Q 2.144911351697198 0.06206896551724139 2.1397389379040948 0.06149425287356325 Q 2.1345665241109915 0.060919540229885105 2.1299688229615663 0.05862068965517242 Q 2.1173251448006467 0.056321839080459846 2.1018079034213364 0.056321839080459846 Q 2.0862906620420256 0.056321839080459846 2.075945834455819 0.06264367816091965 Q 2.065601006869612 0.06896551724137934 2.0587044551454743 0.08275862068965523 Q 2.0495090528466235 0.10459770114942535 2.0495090528466235 0.18735632183908052 L 2.0495090528466235 0.20114942528735635 L 2.1242216965247844 0.20114942528735635 Q 2.1380147999730603 0.20114942528735635 2.1454860643408766 0.20919540229885064 Q 2.1529573287086925 0.21724137931034487 2.1529573287086925 0.2275862068965518 Q 2.1529573287086925 0.23793103448275865 2.1454860643408766 0.24597701149425294 Q 2.1380147999730603 0.25402298850574717 2.1242216965247844 0.25402298850574717 L 2.0495090528466235 0.25402298850574717 M 2.634595287805316 0.40689655172413797 Q 2.634595287805316 0.4310344827586208 2.6070090809087643 0.4333333333333334 L 2.2920665521731323 0.4333333333333334 Q 2.2966642533225574 0.5505747126436782 2.384020575161638 0.5850574712643679 Q 2.408158506196121 0.5931034482758621 2.4391929889547415 0.5931034482758621 Q 2.5035608050466953 0.5931034482758621 2.570227471713362 0.5459770114942529 Q 2.590917126885776 0.5344827586206897 2.6047102303340517 0.5482758620689656 Q 2.61160678205819 0.5551724137931036 2.609307931483477 0.5620689655172414 Q 2.609307931483477 0.57816091954023 2.601261954471983 0.5850574712643679 Q 2.538043563667385 0.6482758620689656 2.4345952878053163 0.6471264367816092 Q 2.3403424142420977 0.6471264367816092 2.2828711498742815 0.5862068965517242 Q 2.2185033337823277 0.5229885057471265 2.2185033337823277 0.4195402298850575 Q 2.2185033337823277 0.3241379310344828 2.271376897000718 0.26206896551724146 Q 2.3265493107938218 0.19310344827586212 2.427698736081178 0.19310344827586212 Q 2.5288481613685345 0.19310344827586212 2.5817217245869255 0.25402298850574717 Q 2.6322964372306035 0.3091954022988506 2.634595287805316 0.40689655172413797 M 2.566779195851293 0.3862068965517242 Q 2.563330919989224 0.3241379310344828 2.526549310793822 0.2839080459770116 Q 2.492066552173132 0.24712643678160928 2.427698736081178 0.24712643678160928 Q 2.3725263222880746 0.24712643678160928 2.33344586251796 0.28850574712643684 Q 2.2978136786099137 0.3298850574712644 2.294365402747845 0.3862068965517242 L 2.566779195851293 0.3862068965517242 M 2.8116370891702585 0.27471264367816095 Q 2.8392232960668102 0.19310344827586212 2.9323267443426726 0.19310344827586212 Q 2.9495681236530173 0.19310344827586212 2.9581888133081895 0.20287356321839084 Q 2.966809502963362 0.2126436781609196 2.966809502963362 0.22356321839080467 Q 2.966809502963362 0.23448275862068974 2.9581888133081895 0.24425287356321845 Q 2.9495681236530173 0.25402298850574717 2.9265796179058907 0.25402298850574717 Q 2.9035911121587645 0.25402298850574717 2.880602606411638 0.26321839080459775 Q 2.8576141006645113 0.2724137931034483 2.8426715719288795 0.2896551724137932 Q 2.8116370891702585 0.32758620689655177 2.8116370891702585 0.38965517241379316 L 2.8116370891702585 0.6057471264367816 Q 2.8116370891702585 0.6218390804597702 2.8001428362966956 0.6298850574712644 Q 2.7886485834231323 0.6379310344827587 2.7794531811242815 0.6379310344827587 Q 2.7702577788254312 0.6379310344827587 2.7645106523886493 0.6362068965517242 Q 2.758763525951868 0.6344827586206897 2.753016399515086 0.6287356321839082 Q 2.7426715719288794 0.6218390804597702 2.7426715719288794 0.6057471264367816 L 2.7426715719288794 0.23563218390804602 Q 2.7426715719288794 0.22068965517241385 2.753016399515086 0.21091954022988513 Q 2.763361227101293 0.20114942528735635 2.7788784684806034 0.20114942528735635 Q 2.7943957098599137 0.20114942528735635 2.8030163995150863 0.21091954022988513 Q 2.8116370891702585 0.22068965517241385 2.8116370891702585 0.23563218390804602 L 2.8116370891702585 0.27471264367816095" fill="#202020" fill-rule="nonzero"></path></g><g><path d=" M 4.511489690407223 0.6379310344827587 Q 4.497696586958948 0.6379310344827587 4.488501184660097 0.6287356321839082 Q 4.472409230637108 0.6149425287356323 4.472409230637108 0.6000000000000001 L 4.472409230637108 0.0494252873563219 Q 4.472409230637108 0.02758620689655178 4.495397736384235 0.014942528735632288 Q 4.502294288108373 0.012643678160919603 4.5091908398325105 0.010344827586206917 L 4.836777046729062 0.010344827586206917 Q 4.854018426039407 0.010344827586206917 4.862064403050901 0.020689655172413834 Q 4.870110380062396 0.03103448275862075 4.870110380062396 0.0431034482758621 Q 4.870110380062396 0.05517241379310356 4.860914977763545 0.06551724137931036 Q 4.851719575464695 0.07586206896551728 4.836777046729062 0.07586206896551728 L 4.548271299602626 0.07586206896551728 L 4.548271299602626 0.2839080459770116 L 4.822983943280787 0.2839080459770116 Q 4.840225322591131 0.2839080459770116 4.848271299602626 0.2936781609195403 Q 4.85631727661412 0.303448275862069 4.85631727661412 0.31609195402298856 Q 4.85631727661412 0.32758620689655177 4.8471218743152695 0.33678160919540234 Q 4.837926472016418 0.3459770114942529 4.822983943280787 0.3459770114942529 L 4.548271299602626 0.3459770114942529 L 4.548271299602626 0.5735632183908046 L 4.849420724889982 0.5735632183908046 Q 4.86551267891297 0.5735632183908046 4.873558655924465 0.5839080459770115 Q 4.881604632935959 0.5942528735632184 4.881604632935959 0.606896551724138 Q 4.881604632935959 0.6195402298850575 4.872983943280786 0.6287356321839082 Q 4.864363253625614 0.6379310344827587 4.849420724889982 0.6379310344827587 L 4.511489690407223 0.6379310344827587 M 5.36207759225708 0.2839080459770116 Q 5.417250006050183 0.19310344827586212 5.520698281912252 0.19310344827586212 Q 5.62759483363639 0.19310344827586212 5.663227017544436 0.28275862068965524 Q 5.675870695705355 0.31609195402298856 5.675870695705355 0.3597701149425288 L 5.675870695705355 0.6057471264367816 Q 5.675870695705355 0.6218390804597702 5.66495115547547 0.6298850574712644 Q 5.654031615245586 0.6379310344827587 5.641387937084666 0.6379310344827587 Q 5.62759483363639 0.6379310344827587 5.616675293406505 0.6293103448275863 Q 5.60575575317662 0.6206896551724138 5.60575575317662 0.6057471264367816 L 5.60575575317662 0.3551724137931035 Q 5.60575575317662 0.30229885057471273 5.575870695705356 0.2724137931034483 Q 5.548284488808804 0.24712643678160928 5.504606327889263 0.24712643678160928 Q 5.417250006050183 0.24712643678160928 5.386215523291562 0.3183908045977012 Q 5.373571845130643 0.34482758620689663 5.373571845130643 0.3827586206896552 L 5.373571845130643 0.6057471264367816 Q 5.373571845130643 0.6218390804597702 5.362652304900758 0.6298850574712644 Q 5.3517327646708726 0.6379310344827587 5.339089086509953 0.6379310344827587 Q 5.325295983061677 0.6379310344827587 5.314376442831792 0.6293103448275863 Q 5.303456902601908 0.6206896551724138 5.303456902601908 0.6057471264367816 L 5.303456902601908 0.3551724137931035 Q 5.303456902601908 0.30229885057471273 5.2747212704179995 0.2724137931034483 Q 5.247135063521448 0.24712643678160928 5.211502879613401 0.24712643678160928 Q 5.175870695705355 0.24712643678160928 5.152882189958229 0.2551724137931035 Q 5.129893684211103 0.26321839080459775 5.111502879613401 0.2816091954022989 Q 5.074721270417999 0.3183908045977012 5.072422419843287 0.38505747126436785 L 5.072422419843287 0.6057471264367816 Q 5.072422419843287 0.6218390804597702 5.060928166969723 0.6298850574712644 Q 5.04943391409616 0.6379310344827587 5.03679023593524 0.6379310344827587 Q 5.024146557774321 0.6379310344827587 5.012652304900758 0.6293103448275863 Q 5.001158052027194 0.6206896551724138 5.001158052027194 0.6057471264367816 L 5.001158052027194 0.23448275862068974 Q 5.001158052027194 0.2195402298850575 5.012652304900758 0.21034482758620698 Q 5.024146557774321 0.20114942528735635 5.0344913853605275 0.20114942528735635 Q 5.044836212946735 0.20114942528735635 5.0505833393835164 0.20402298850574718 Q 5.056330465820298 0.206896551724138 5.060928166969723 0.21034482758620698 Q 5.072422419843287 0.2195402298850575 5.072422419843287 0.2333333333333334 L 5.072422419843287 0.27471264367816095 Q 5.088514373866275 0.23563218390804602 5.131043109498459 0.2137931034482759 Q 5.168974143981218 0.19310344827586212 5.219548856624896 0.19310344827586212 Q 5.297709776165125 0.19310344827586212 5.339089086509953 0.24252873563218397 Q 5.352882189958229 0.2609195402298851 5.36207759225708 0.2839080459770116 M 6.16896235788208 0.2839080459770116 Q 6.224134771675183 0.19310344827586212 6.327583047537252 0.19310344827586212 Q 6.43447959926139 0.19310344827586212 6.470111783169436 0.28275862068965524 Q 6.482755461330355 0.31609195402298856 6.482755461330355 0.3597701149425288 L 6.482755461330355 0.6057471264367816 Q 6.482755461330355 0.6218390804597702 6.47183592110047 0.6298850574712644 Q 6.460916380870586 0.6379310344827587 6.448272702709666 0.6379310344827587 Q 6.43447959926139 0.6379310344827587 6.423560059031505 0.6293103448275863 Q 6.41264051880162 0.6206896551724138 6.41264051880162 0.6057471264367816 L 6.41264051880162 0.3551724137931035 Q 6.41264051880162 0.30229885057471273 6.382755461330356 0.2724137931034483 Q 6.355169254433804 0.24712643678160928 6.311491093514263 0.24712643678160928 Q 6.224134771675183 0.24712643678160928 6.193100288916562 0.3183908045977012 Q 6.180456610755643 0.34482758620689663 6.180456610755643 0.3827586206896552 L 6.180456610755643 0.6057471264367816 Q 6.180456610755643 0.6218390804597702 6.169537070525758 0.6298850574712644 Q 6.1586175302958726 0.6379310344827587 6.145973852134953 0.6379310344827587 Q 6.132180748686677 0.6379310344827587 6.121261208456792 0.6293103448275863 Q 6.110341668226908 0.6206896551724138 6.110341668226908 0.6057471264367816 L 6.110341668226908 0.3551724137931035 Q 6.110341668226908 0.30229885057471273 6.0816060360429995 0.2724137931034483 Q 6.054019829146448 0.24712643678160928 6.018387645238401 0.24712643678160928 Q 5.982755461330355 0.24712643678160928 5.959766955583229 0.2551724137931035 Q 5.936778449836103 0.26321839080459775 5.918387645238401 0.2816091954022989 Q 5.881606036042999 0.3183908045977012 5.879307185468287 0.38505747126436785 L 5.879307185468287 0.6057471264367816 Q 5.879307185468287 0.6218390804597702 5.867812932594723 0.6298850574712644 Q 5.85631867972116 0.6379310344827587 5.84367500156024 0.6379310344827587 Q 5.831031323399321 0.6379310344827587 5.819537070525758 0.6293103448275863 Q 5.808042817652194 0.6206896551724138 5.808042817652194 0.6057471264367816 L 5.808042817652194 0.23448275862068974 Q 5.808042817652194 0.2195402298850575 5.819537070525758 0.21034482758620698 Q 5.831031323399321 0.20114942528735635 5.8413761509855275 0.20114942528735635 Q 5.851720978571735 0.20114942528735635 5.8574681050085164 0.20402298850574718 Q 5.863215231445298 0.206896551724138 5.867812932594723 0.21034482758620698 Q 5.879307185468287 0.2195402298850575 5.879307185468287 0.2333333333333334 L 5.879307185468287 0.27471264367816095 Q 5.895399139491275 0.23563218390804602 5.937927875123459 0.2137931034482759 Q 5.975858909606218 0.19310344827586212 6.026433622249896 0.19310344827586212 Q 6.104594541790125 0.19310344827586212 6.145973852134953 0.24252873563218397 Q 6.159766955583229 0.2609195402298851 6.16896235788208 0.2839080459770116 M 6.824122985576045 0.37241379310344835 Q 6.848260916610528 0.37241379310344835 6.872398847645011 0.37356321839080464 L 6.872398847645011 0.33678160919540234 Q 6.872398847645011 0.24712643678160928 6.772398847645011 0.24712643678160928 Q 6.727571261438114 0.24712643678160928 6.7068816062657 0.2551724137931035 Q 6.670099997070298 0.26896551724137935 6.65400804304731 0.2787356321839081 Q 6.637916089024321 0.28850574712643684 6.628720686725471 0.28850574712643684 Q 6.6195252844266195 0.28850574712643684 6.6114793074151255 0.2816091954022989 Q 6.6034333304036315 0.27471264367816095 6.6034333304036315 0.26321839080459775 Q 6.6034333304036315 0.25402298850574717 6.613778157989838 0.2448275862068966 Q 6.667801146495585 0.19310344827586212 6.773548272932367 0.19310344827586212 Q 6.895387353392137 0.19310344827586212 6.929870112012827 0.27471264367816095 Q 6.94136436488639 0.303448275862069 6.94136436488639 0.34137931034482766 L 6.939065514311677 0.606896551724138 Q 6.939065514311677 0.6218390804597702 6.9287206867254705 0.6298850574712644 Q 6.918375859139264 0.6379310344827587 6.905732180978344 0.6379310344827587 Q 6.893088502817425 0.6379310344827587 6.882743675231217 0.6310344827586207 Q 6.872398847645011 0.6241379310344828 6.872398847645011 0.6080459770114943 L 6.872398847645011 0.5666666666666668 Q 6.844812640748459 0.6264367816091955 6.773548272932367 0.6413793103448276 Q 6.751709192472597 0.6471264367816092 6.724122985576045 0.6471264367816092 Q 6.696536778679493 0.6471264367816092 6.66952528442662 0.639080459770115 Q 6.642513790173746 0.6310344827586207 6.621824135001333 0.6137931034482759 Q 6.5792953993691485 0.57816091954023 6.5792953993691485 0.5172413793103449 Q 6.5792953993691485 0.37241379310344835 6.824122985576045 0.37241379310344835 M 6.872398847645011 0.42413793103448283 Q 6.854008043047309 0.42643678160919546 6.829870112012827 0.42643678160919546 Q 6.805732180978344 0.42643678160919546 6.780444824656505 0.42701149425287366 Q 6.755157468334666 0.4275862068965518 6.732168962587539 0.4327586206896552 Q 6.7091804568404125 0.43793103448275866 6.690789652242712 0.4482758620689656 Q 6.651709192472597 0.46896551724137936 6.649410341897884 0.5160919540229886 Q 6.649410341897884 0.5528735632183909 6.679295399369148 0.5735632183908046 Q 6.702283905116275 0.5919540229885059 6.744812640748459 0.5931034482758621 Q 6.796536778679493 0.5931034482758621 6.834467813162252 0.5597701149425288 Q 6.868950571782942 0.5275862068965518 6.872398847645011 0.46321839080459776 L 6.872398847645011 0.42413793103448283 M 7.073525261976907 0.23448275862068974 Q 7.073525261976907 0.2195402298850575 7.085019514850471 0.21034482758620698 Q 7.0965137677240335 0.20114942528735635 7.108008020597597 0.20114942528735635 Q 7.132145951632079 0.20114942528735635 7.139042503356218 0.2195402298850575 Q 7.145939055080356 0.23793103448275865 7.142490779218287 0.27471264367816095 Q 7.156283882666562 0.24022988505747134 7.2022608941608155 0.21494252873563224 Q 7.242490779218286 0.19310344827586212 7.28214595163208 0.19310344827586212 Q 7.321801124045873 0.19310344827586212 7.349387330942425 0.20287356321839084 Q 7.3769735378389765 0.2126436781609196 7.399962043586102 0.2333333333333334 Q 7.4459390550803555 0.27701149425287364 7.4459390550803555 0.36206896551724144 L 7.4459390550803555 0.6057471264367816 Q 7.4459390550803555 0.6218390804597702 7.433870089563114 0.6298850574712644 Q 7.4218011240458726 0.6379310344827587 7.409157445884953 0.6379310344827587 Q 7.395364342436677 0.6379310344827587 7.3850195148504705 0.6293103448275863 Q 7.374674687264264 0.6206896551724138 7.374674687264264 0.6057471264367816 L 7.374674687264264 0.3574712643678162 Q 7.374674687264264 0.303448275862069 7.3447896297929995 0.27471264367816095 Q 7.317203422896448 0.24712643678160928 7.27582411255162 0.24712643678160928 Q 7.220651698758516 0.24712643678160928 7.181571238988401 0.27931034482758627 Q 7.142490779218287 0.31379310344827593 7.142490779218287 0.38505747126436785 L 7.142490779218287 0.6057471264367816 Q 7.142490779218287 0.6218390804597702 7.130996526344723 0.6298850574712644 Q 7.11950227347116 0.6379310344827587 7.105709170022884 0.6379310344827587 Q 7.091916066574608 0.6379310344827587 7.082720664275758 0.6293103448275863 Q 7.073525261976907 0.6206896551724138 7.073525261976907 0.6057471264367816 L 7.073525261976907 0.23448275862068974 M 7.9528360277366055 0.6057471264367816 Q 7.9528360277366055 0.6218390804597702 7.940767062219364 0.6298850574712644 Q 7.9286980967021226 0.6379310344827587 7.92007740704695 0.6379310344827587 Q 7.911456717391778 0.6379310344827587 7.90456016566764 0.6362068965517242 Q 7.897663613943502 0.6344827586206897 7.893065912794077 0.6287356321839082 Q 7.881571659920514 0.6206896551724138 7.881571659920514 0.6057471264367816 L 7.881571659920514 0.5655172413793104 Q 7.853985453023962 0.6264367816091955 7.780422234633157 0.6413793103448276 Q 7.75743372888603 0.6471264367816092 7.730996947276835 0.6471264367816092 Q 7.70456016566764 0.6471264367816092 7.675824533483732 0.6379310344827587 Q 7.647088901299824 0.6287356321839082 7.62639924612741 0.6080459770114943 Q 7.580422234633157 0.5643678160919541 7.580422234633157 0.4770114942528736 L 7.580422234633157 0.23563218390804602 Q 7.580422234633157 0.2195402298850575 7.590767062219364 0.21034482758620698 Q 7.601111889805571 0.20114942528735635 7.614904993253847 0.20114942528735635 Q 7.628698096702123 0.20114942528735635 7.639042924288329 0.21034482758620698 Q 7.649387751874537 0.2195402298850575 7.649387751874537 0.23563218390804602 L 7.649387751874537 0.48275862068965525 Q 7.649387751874537 0.5448275862068966 7.674675108196376 0.5689655172413793 Q 7.699962464518214 0.5931034482758621 7.750537177161893 0.5931034482758621 Q 7.835594648426261 0.5931034482758621 7.867778556472238 0.5241379310344828 Q 7.880422234633158 0.5 7.881571659920514 0.46896551724137936 L 7.881571659920514 0.23563218390804602 Q 7.881571659920514 0.2195402298850575 7.893065912794077 0.21034482758620698 Q 7.90456016566764 0.20114942528735635 7.918353269115916 0.20114942528735635 Q 7.932146372564191 0.20114942528735635 7.942491200150399 0.21034482758620698 Q 7.9528360277366055 0.2195402298850575 7.9528360277366055 0.23563218390804602 L 7.9528360277366055 0.6057471264367816 M 8.475824954415843 0.40689655172413797 Q 8.475824954415843 0.4310344827586208 8.44823874751929 0.4333333333333334 L 8.13329621878366 0.4333333333333334 Q 8.137893919933084 0.5505747126436782 8.225250241772166 0.5850574712643679 Q 8.249388172806647 0.5931034482758621 8.280422655565268 0.5931034482758621 Q 8.344790471657223 0.5931034482758621 8.41145713832389 0.5459770114942529 Q 8.432146793496303 0.5344827586206897 8.445939896944578 0.5482758620689656 Q 8.452836448668716 0.5551724137931036 8.450537598094003 0.5620689655172414 Q 8.450537598094003 0.57816091954023 8.44249162108251 0.5850574712643679 Q 8.379273230277912 0.6482758620689656 8.275824954415842 0.6471264367816092 Q 8.181572080852625 0.6471264367816092 8.124100816484809 0.5862068965517242 Q 8.059733000392855 0.5229885057471265 8.059733000392855 0.4195402298850575 Q 8.059733000392855 0.3241379310344828 8.112606563611246 0.26206896551724146 Q 8.16777897740435 0.19310344827586212 8.268928402691705 0.19310344827586212 Q 8.370077827979062 0.19310344827586212 8.422951391197453 0.25402298850574717 Q 8.473526103841131 0.3091954022988506 8.475824954415843 0.40689655172413797 M 8.40800886246182 0.3862068965517242 Q 8.404560586599752 0.3241379310344828 8.367778977404349 0.2839080459770116 Q 8.333296218783659 0.24712643678160928 8.268928402691705 0.24712643678160928 Q 8.213755988898601 0.24712643678160928 8.174675529128487 0.28850574712643684 Q 8.139043345220442 0.3298850574712644 8.135595069358372 0.3862068965517242 L 8.40800886246182 0.3862068965517242 M 8.583901238539406 0.047126436781609216 Q 8.583901238539406 0.028735632183908066 8.595395491412969 0.020689655172413834 Q 8.606889744286534 0.012643678160919603 8.616085146585384 0.012643678160919603 Q 8.625280548884234 0.012643678160919603 8.631027675321015 0.01379310344827589 Q 8.636774801757797 0.014942528735632288 8.64252192819458 0.020689655172413834 Q 8.655165606355498 0.028735632183908066 8.655165606355498 0.047126436781609216 L 8.655165606355498 0.6034482758620691 Q 8.655165606355498 0.6206896551724138 8.643671353481935 0.6293103448275863 Q 8.632177100608372 0.6379310344827587 8.618383997160096 0.6379310344827587 Q 8.604590893711821 0.6379310344827587 8.594246066125613 0.6293103448275863 Q 8.583901238539406 0.6206896551724138 8.583901238539406 0.6034482758620691 L 8.583901238539406 0.047126436781609216 M 8.790810418226906 0.047126436781609216 Q 8.790810418226906 0.028735632183908066 8.802304671100469 0.020689655172413834 Q 8.813798923974034 0.012643678160919603 8.822994326272884 0.012643678160919603 Q 8.832189728571734 0.012643678160919603 8.837936855008515 0.01379310344827589 Q 8.843683981445297 0.014942528735632288 8.84943110788208 0.020689655172413834 Q 8.862074786042998 0.028735632183908066 8.862074786042998 0.047126436781609216 L 8.862074786042998 0.6034482758620691 Q 8.862074786042998 0.6206896551724138 8.850580533169435 0.6293103448275863 Q 8.839086280295872 0.6379310344827587 8.825293176847596 0.6379310344827587 Q 8.811500073399321 0.6379310344827587 8.801155245813113 0.6293103448275863 Q 8.790810418226906 0.6206896551724138 8.790810418226906 0.6034482758620691 L 8.790810418226906 0.047126436781609216 M 9.386225345040843 0.40689655172413797 Q 9.386225345040843 0.4310344827586208 9.35863913814429 0.4333333333333334 L 9.04369660940866 0.4333333333333334 Q 9.048294310558084 0.5505747126436782 9.135650632397166 0.5850574712643679 Q 9.159788563431647 0.5931034482758621 9.190823046190268 0.5931034482758621 Q 9.255190862282223 0.5931034482758621 9.32185752894889 0.5459770114942529 Q 9.342547184121303 0.5344827586206897 9.356340287569578 0.5482758620689656 Q 9.363236839293716 0.5551724137931036 9.360937988719003 0.5620689655172414 Q 9.360937988719003 0.57816091954023 9.35289201170751 0.5850574712643679 Q 9.289673620902912 0.6482758620689656 9.186225345040842 0.6471264367816092 Q 9.091972471477625 0.6471264367816092 9.034501207109809 0.5862068965517242 Q 8.970133391017855 0.5229885057471265 8.970133391017855 0.4195402298850575 Q 8.970133391017855 0.3241379310344828 9.023006954236246 0.26206896551724146 Q 9.07817936802935 0.19310344827586212 9.179328793316705 0.19310344827586212 Q 9.280478218604062 0.19310344827586212 9.333351781822453 0.25402298850574717 Q 9.383926494466131 0.3091954022988506 9.386225345040843 0.40689655172413797 M 9.31840925308682 0.3862068965517242 Q 9.314960977224752 0.3241379310344828 9.278179368029349 0.2839080459770116 Q 9.243696609408659 0.24712643678160928 9.179328793316705 0.24712643678160928 Q 9.124156379523601 0.24712643678160928 9.085075919753487 0.28850574712643684 Q 9.049443735845442 0.3298850574712644 9.045995459983372 0.3862068965517242 L 9.31840925308682 0.3862068965517242" fill="#202020" fill-rule="nonzero"></path></g><g></g></g><defs><clipPath id="SvgjsClipPath148471"><path d=" M 3.08406982421875 -0.21810344827586214 h 1.200983084579278 v 1.0844827586206898 h -1.200983084579278 Z"></path></clipPath><clipPath id="aed64f824-75cb-4d18-8be8-345e27b3fdf9047bb893-2038-4714-be24-27ffdcef46f7"><path d=" M 3.0840706506675706 0.8828912571745282 L 4.285053679890991 0.8828912571745282 L 4.285053679890991 -0.21810344827586237 L 3.0840706506675706 -0.21810344827586237 Z"></path></clipPath><linearGradient id="gradient-08c6a1ff-46e9-4458-b0fe-ab543a0f772f_0" x1="0" x2="1" y1="0" y2="1"><stop stop-color="#147fbc" offset="0"></stop><stop stop-color="#185e86" offset="1"></stop></linearGradient><linearGradient id="gradient-08c6a1ff-46e9-4458-b0fe-ab543a0f772f_1" x1="0" x2="1" y1="0" y2="1"><stop stop-color="#195375" offset="0"></stop><stop stop-color="#1e333f" offset="1"></stop></linearGradient><linearGradient id="gradient-08c6a1ff-46e9-4458-b0fe-ab543a0f772f_2" x1="0" x2="1" y1="0" y2="1"><stop stop-color="#147bb6" offset="0"></stop><stop stop-color="#186089" offset="1"></stop></linearGradient><linearGradient id="gradient-08c6a1ff-46e9-4458-b0fe-ab543a0f772f_3" x1="0" x2="1" y1="0" y2="1"><stop stop-color="#1284c6" offset="0"></stop><stop stop-color="#166897" offset="1"></stop></linearGradient><linearGradient id="gradient-08c6a1ff-46e9-4458-b0fe-ab543a0f772f_4" x1="0" x2="1" y1="0" y2="1"><stop stop-color="#166b9c" offset="0"></stop><stop stop-color="#1a4f6e" offset="1"></stop></linearGradient><linearGradient id="gradient-08c6a1ff-46e9-4458-b0fe-ab543a0f772f_5" x1="0" x2="1" y1="0" y2="1"><stop stop-color="#1b4760" offset="0"></stop><stop stop-color="#1e2b32" offset="1"></stop></linearGradient><linearGradient id="gradient-08c6a1ff-46e9-4458-b0fe-ab543a0f772f_6" x1="0" x2="1" y1="0" y2="1"><stop stop-color="#17638e" offset="0"></stop><stop stop-color="#1b4760" offset="1"></stop></linearGradient><clipPath id="SvgjsClipPath148466047bb893-2038-4714-be24-27ffdcef46f7"><path d=" M 3.08406982421875 -0.21810344827586214 L 4.285052908798028 -0.21810344827586214 L 4.285052908798028 0.8663793103448276 L 3.08406982421875 0.8663793103448276 Z"></path></clipPath><linearGradient id="gradient-08c6a1ff-46e9-4458-b0fe-ab543a0f772f_7" x1="0" x2="1" y1="0" y2="1"><stop stop-color="#166998" offset="0"></stop><stop stop-color="#1a4863" offset="1"></stop></linearGradient><clipPath id="bed64f824-75cb-4d18-8be8-345e27b3fdf9047bb893-2038-4714-be24-27ffdcef46f7"><path d=" M 3.4534870750664943 0.8828912571745282 L 3.8215063877343565 0.8828912571745282 L 3.8215063877343565 0.5235223843108765 L 3.4534870750664943 0.5235223843108765 Z"></path></clipPath><linearGradient id="gradient-08c6a1ff-46e9-4458-b0fe-ab543a0f772f_8" x1="0" x2="1" y1="0" y2="1"><stop stop-color="#195476" offset="0"></stop><stop stop-color="#1d3644" offset="1"></stop></linearGradient><linearGradient id="gradient-08c6a1ff-46e9-4458-b0fe-ab543a0f772f_9" x1="0" x2="1" y1="0" y2="1"><stop stop-color="#166998" offset="0"></stop><stop stop-color="#1a4a66" offset="1"></stop></linearGradient></defs></svg>